PathFileType	4	(X/Y/Z)	..\data\2014031\dynamic\2014031_C4_02.trc
DataRate	CameraRate	NumFrames	NumMarkers	Units	OrigDataRate	OrigDataStartFrame	OrigNumFrames
100.000000	100.000000	4	52	mm	100.000000	85	170
Frame#	Time	L_IAS			L_IPS			R_IPS			R_IAS			L_FTC			L_FLE			L_FME			L_FAX			L_TTC			L_FAL			L_TAM			L_FCC			L_FM1			L_FM2			L_FM5			R_FTC			R_FLE			R_FME			R_FAX			R_TTC			R_FAL			R_TAM			R_FCC			R_FM1			R_FM2			R_FM5			CV7			TV10			SXS			SJN			L_SIA			L_SRS			L_SAA			L_SAE			L_HLE			L_HME			L_UOA			L_RSP			L_UHE			L_HM2			L_HM5			R_SIA			R_SRS			R_SAA			R_SAE			R_HLE			R_HME			R_UOA			R_RSP			R_UHE			R_HM2			R_HM5			
		X1	Y1	Z1	X2	Y2	Z2	X3	Y3	Z3	X4	Y4	Z4	X5	Y5	Z5	X6	Y6	Z6	X7	Y7	Z7	X8	Y8	Z8	X9	Y9	Z9	X10	Y10	Z10	X11	Y11	Z11	X12	Y12	Z12	X13	Y13	Z13	X14	Y14	Z14	X15	Y15	Z15	X16	Y16	Z16	X17	Y17	Z17	X18	Y18	Z18	X19	Y19	Z19	X20	Y20	Z20	X21	Y21	Z21	X22	Y22	Z22	X23	Y23	Z23	X24	Y24	Z24	X25	Y25	Z25	X26	Y26	Z26	X27	Y27	Z27	X28	Y28	Z28	X29	Y29	Z29	X30	Y30	Z30	X31	Y31	Z31	X32	Y32	Z32	X33	Y33	Z33	X34	Y34	Z34	X35	Y35	Z35	X36	Y36	Z36	X37	Y37	Z37	X38	Y38	Z38	X39	Y39	Z39	X40	Y40	Z40	X41	Y41	Z41	X42	Y42	Z42	X43	Y43	Z43	X44	Y44	Z44	X45	Y45	Z45	X46	Y46	Z46	X47	Y47	Z47	X48	Y48	Z48	X49	Y49	Z49	X50	Y50	Z50	X51	Y51	Z51	X52	Y52	Z52	

86	0.85	767.5227661132814	955.877380371094	-334.5455627441407	577.3214721679689	984.728698730469	-268.8547973632813	578.6414184570314	988.2298583984377	-163.1470184326172	773.289489746094	965.1508789062502	-109.2116394042969	672.8958129882814	873.0679931640627	-406.3565979003907	792.0684204101565	485.1506958007814	-374.4559326171876	809.7993774414065	476.9441528320314	-247.8850555419922	762.4111938476564	440.6791381835939	-375.2865600585938	825.110046386719	406.330780029297	-323.3047790527344	519.2899780273439	206.0964050292969	-329.7733154296876	561.3613281250001	191.9265594482422	-246.2920532226563	461.5161743164064	195.7463684082032	-275.0682067871094	592.3387451171876	59.03129196166994	-264.8026428222657	600.6712036132814	72.4114227294922	-320.1745300292969	556.2940063476564	90.50745391845705	-360.8082275390626	696.6003417968751	877.1770629882815	-35.39255523681641	739.5152587890626	471.0332031250001	-94.04566955566408	730.7616577148439	463.892791748047	-222.5073547363282	732.9026489257814	408.8657226562501	-95.04620361328126	788.431823730469	410.6707763671876	-156.079833984375	676.9066772460939	69.17109680175783	-141.6185302734375	706.9352416992189	89.7595672607422	-228.6209411621094	635.8668823242189	19.49633598327637	-192.8272857666016	828.9333496093752	20.45414543151856	-208.9423522949219	834.0291748046877	35.97422409057618	-148.3548736572266	787.6064453125002	18.78482437133789	-99.47674560546878	653.1356811523439	1508.801391601563	-189.0066070556641	569.3612670898439	1232.37060546875	-210.0083312988282	790.4719848632815	1225.984619140625	-227.9369354248047	764.1390380859376	1420.025024414063	-211.6054687500001	557.0581054687501	1270.503051757813	-318.1135253906251	603.8190307617189	1426.55078125	-334.7033386230469	651.1063232421876	1421.220581054688	-397.5404663085939	698.0775146484376	1422.153076171875	-400.2340393066407	677.6456298828126	1089.368408203125	-485.7598266601564	635.1300048828126	1064.371948242188	-413.5170898437501	639.0374755859376	1059.114990234375	-464.5664978027345	811.528503417969	862.8921508789065	-416.7447509765626	783.6944580078127	854.7967529296877	-493.3851013183595	859.8045043945315	788.7667236328127	-422.5486755371095	793.492858886719	777.3811035156252	-497.0283203125001	570.0353393554689	1258.86767578125	-103.6061477661133	624.1234130859376	1411.606079101563	-71.94884490966798	684.3658447265626	1404.085693359375	-16.57334709167481	731.9885253906251	1390.198364257813	-6.612060546875002	679.3463745117189	1058.13818359375	54.33276748657228	644.9115600585939	1044.830688476563	-22.36998176574707	637.6935424804689	1033.709838867188	19.52355575561524	793.2406005859377	827.7344970703127	9.303929328918459	751.4354858398439	816.6795043945315	76.3598098754883	824.7588500976565	737.6500244140626	8.86509418487549	750.4738769531251	731.2647705078126	77.76843261718751	
87	0.86	778.5089111328127	957.5140380859377	-333.2276916503907	588.1382446289064	985.993591308594	-268.3854980468751	589.2457885742189	989.3104248046877	-162.6575317382813	783.6539306640627	965.9553222656252	-108.0271530151367	685.0946655273439	874.9075927734377	-405.8716430664064	811.8181762695315	488.6305541992189	-373.2587890625001	829.233581542969	481.3308105468751	-246.7655487060547	783.7513427734377	442.6531982421876	-374.0998229980469	847.4777832031252	410.8538818359376	-321.8294067382813	550.6474609375001	197.0719604492188	-329.7642517089844	592.3442993164064	185.5577697753907	-245.8883666992188	492.1800231933595	183.6538543701172	-275.6369323730469	631.8670043945314	55.26016235351564	-263.9420471191407	639.8701782226564	69.61480712890626	-319.0361938476563	594.7539062500001	84.26725006103517	-360.1964721679688	706.0313110351564	877.695739746094	-34.88220214843751	742.0714721679689	470.9401245117189	-93.34390258789064	733.1978149414064	463.9429321289064	-221.8111572265626	734.8281860351564	408.7547607421876	-94.45731353759767	790.2734375000002	410.1288452148439	-155.4540710449219	677.0329589843751	69.23899841308595	-141.6990203857422	706.9296875000001	89.88610076904298	-228.6726379394532	635.8800659179689	19.66320037841797	-192.9501953125001	829.0044555664065	20.3764762878418	-208.8416137695313	834.2046508789065	35.77381134033204	-148.2707672119141	787.613220214844	18.71300125122071	-99.35050964355472	664.0557250976564	1509.835327148438	-189.2707672119141	580.2153930664064	1233.425415039063	-209.4165344238282	801.360534667969	1227.01806640625	-227.1302185058594	775.1318969726565	1420.966796875	-211.3306274414063	567.7133178710939	1271.880981445313	-317.8545227050782	615.2976684570314	1427.59765625	-334.8323974609376	662.7323608398439	1421.961791992188	-397.4836730957032	709.6950073242189	1422.704467773438	-400.1029663085939	685.4448242187501	1089.92919921875	-484.5601806640626	642.5352783203126	1065.974975585938	-412.2929077148439	646.1213989257814	1060.9267578125	-463.2457885742189	812.2064208984377	858.7705688476565	-417.9731750488282	784.303161621094	852.5927734375002	-494.8646545410157	857.1123046875002	782.5239257812502	-424.3349609375001	790.820739746094	774.9651489257815	-499.3789978027345	580.9509277343751	1260.357299804688	-102.8842849731446	634.7719116210939	1412.955810546875	-71.84908294677736	695.0143432617189	1405.646850585938	-16.45745086669922	742.3125610351564	1391.916259765625	-6.478963851928713	694.9917602539064	1059.214965820313	55.25442504882814	660.5175170898439	1045.156494140625	-21.34843635559082	653.5004272460939	1033.885375976563	20.59532546997071	814.0171508789065	831.4777832031252	9.577646255493166	772.6713867187502	819.3735351562502	76.64746856689455	847.9878540039065	742.2801513671876	9.198464393615724	773.9802246093752	734.0236816406251	78.22817230224611	
88	0.87	789.5856933593752	958.893737792969	-331.8894348144532	598.9997558593751	987.0244750976565	-267.9678649902344	599.8978271484376	990.1800537109377	-162.214096069336	794.016784667969	966.5073852539065	-106.8524398803711	697.4489135742189	876.5625610351565	-405.4066162109376	830.944274902344	491.7507629394532	-372.1246032714844	847.994567871094	485.3193969726564	-245.6698455810547	804.5642700195315	444.2190856933595	-372.9872741699219	869.2188720703127	415.1909790039064	-320.4051513671876	582.8375854492189	187.1249084472657	-329.7503662109376	624.0999145507814	178.3398590087891	-245.5076599121094	524.0275268554689	170.5844116210938	-276.1329650878907	672.1080932617189	51.22198867797853	-263.0431213378907	679.5886840820314	66.39729309082033	-317.8883361816407	633.8335571289064	77.55587005615236	-359.5004882812501	715.4580688476564	878.046325683594	-34.38874816894532	744.6925048828126	470.8298339843751	-92.65039825439455	735.6582031250001	463.9765014648439	-221.1005096435547	736.7963867187501	408.6256713867189	-93.87130737304689	792.1442871093752	409.5369567871095	-154.8654022216797	677.1845703125001	69.32216644287111	-141.7811737060547	706.9136352539064	90.01098632812501	-228.7142333984376	635.9208984375001	19.842191696167	-193.0712890625001	829.0833129882815	20.33173370361328	-208.7380981445313	834.407653808594	35.6056022644043	-148.2080993652344	787.643737792969	18.67505264282227	-99.23246765136722	674.9730224609376	1510.648193359375	-189.582015991211	591.0885009765626	1234.248291015625	-208.8409729003907	812.2830810546877	1227.875732421875	-226.2766113281251	786.1190185546877	1421.705200195313	-211.0597839355469	578.4645385742189	1272.951538085938	-317.5697937011719	626.8177490234376	1428.364379882813	-334.9883728027344	674.3672485351564	1422.449340820313	-397.4537963867189	721.3239135742189	1423.015258789063	-400.0054626464845	693.0823364257814	1090.330444335938	-483.4209289550782	649.9272460937501	1067.389038085938	-411.0661010742189	653.0736083984376	1062.549682617188	-461.9383239746095	812.8806762695315	854.8909301757815	-419.2023925781251	784.9644775390627	850.5590820312502	-496.3161926269532	854.278747558594	776.639587402344	-426.0520324707032	788.1704101562502	772.8642578125002	-501.6434020996095	591.8764648437501	1261.571533203125	-102.1922607421875	645.3438110351564	1414.085205078125	-71.8130340576172	705.5577392578126	1407.010864257813	-16.34737777709961	752.4511718750001	1393.520385742188	-6.356804847717287	710.4896240234376	1060.204467773438	56.18074798583986	676.0556640625001	1045.38525390625	-20.34687995910645	669.1425170898439	1033.975219726563	21.6408805847168	834.8481445312502	835.3891601562502	9.82018566131592	793.924499511719	822.1557617187502	76.84482574462892	871.202331542969	747.1726684570314	9.355394363403322	797.5163574218752	736.9389038085939	78.46945953369142	
89	0.88	800.7436523437502	959.9788818359377	-330.5722961425782	609.9059448242189	987.7874755859377	-267.5946350097657	610.5858764648439	990.8230590820315	-161.8184967041016	804.3833618164065	966.7871093750002	-105.7078933715821	709.9075927734376	877.9787597656252	-404.9542846679689	849.4095458984377	494.4300231933595	-371.0646057128907	866.0088500976565	488.8117980957032	-244.5952301025391	824.812683105469	445.3291320800782	-371.9540100097657	890.266540527344	419.2720336914064	-319.0411987304688	615.8576049804689	176.5027770996094	-329.7164916992188	656.6488037109376	170.4666748046875	-245.1441497802735	557.1205444335939	156.7791595458985	-276.5350036621094	712.9890136718751	47.12870025634766	-262.1951293945313	719.7560424804689	62.973445892334	-316.8261413574219	673.5004272460939	70.66377258300783	-358.7924804687501	724.9003295898439	878.2203369140627	-33.91584396362305	747.4089965820314	470.6962280273439	-91.97406005859376	738.1686401367189	463.9913940429689	-220.3851776123047	738.8338012695314	408.4703369140626	-93.29183959960939	794.0745849609377	408.8872985839845	-154.3147430419922	677.3535766601564	69.41835784912111	-141.8608093261719	706.9030151367189	90.12796783447267	-228.7477416992188	635.9810180664064	20.02716064453125	-193.1885986328126	829.1665039062502	20.31745719909668	-208.6300506591797	834.6293945312502	35.46246719360352	-148.163803100586	787.6882324218752	18.65852546691895	-99.12159729003909	685.9120483398439	1511.223022460938	-189.930892944336	601.9831542968751	1234.825317382813	-208.2879943847657	823.2435302734377	1228.526245117188	-225.3907775878907	797.113708496094	1422.216064453125	-210.7991027832032	589.3146972656251	1273.672973632813	-317.2280883789063	638.3737792968751	1428.825439453125	-335.1553039550782	685.9957885742189	1422.65771484375	-397.4462890625001	732.9506835937501	1423.061645507813	-399.9471435546876	700.5641479492189	1090.551025390625	-482.354705810547	657.3196411132814	1068.577026367188	-409.8589172363282	659.9139404296876	1063.95068359375	-460.6575012207032	813.614196777344	851.2427368164065	-420.4288024902345	785.727966308594	848.6665039062502	-497.7265625000001	851.4024047851565	771.126159667969	-427.6806030273439	785.6313476562502	771.0451660156252	-503.796356201172	602.8137207031251	1262.48681640625	-101.5355072021485	655.8726196289064	1414.97265625	-71.83153533935548	716.0347900390626	1408.144409179688	-16.23979759216309	762.4763183593751	1394.964233398438	-6.252877235412599	725.8325805664064	1061.072875976563	57.12623214721681	691.4945678710939	1045.488891601563	-19.33926010131836	684.6213378906251	1033.945190429688	22.68804550170899	855.6876220703127	839.438659667969	10.02904415130615	815.1496582031252	824.990905761719	76.94581604003908	894.374206542969	752.3077392578126	9.342236518859865	821.041687011719	739.9722900390626	78.47360229492189	
